# xmcd
#
# Track frame offsets:
#	150
#	12156
#	20632
#	36024
#	47064
#	57916
#	67327
#	74386
#	86204
#	97808
#	109422
#	116813
#	132499
#	145123
#	157087
#	169605
#	181744
#	196895
#	208565
#	220336
#	234462
#	247489
#	262651
#	275296
#	289349
#
# Disc length: 3909 seconds
#
# Revision: 1
# Processed by: cddbd v1.5.2PL0 Copyright (c) Steve Scherf et al.
# Submitted via: audiograbber 1.83.01
#
DISCID=7e0f4319
DTITLE=Nat King Cole - Legends
DYEAR=1900
DGENRE=
TTITLE0=Little Girl
TTITLE1=This Is My Night To Dream
TTITLE2=Home
TTITLE3=Who's Been Eating My Porridge
TTITLE4=It's Better To Be Yourself
TTITLE5=Oh, Kickeroony
TTITLE6=Breezy And The Bass
TTITLE7=Always You
TTITLE8=Firm Farm Sauce
TTITLE9=Now He Tells Me
TTITLE10=That's My Girl
TTITLE11=You Can Call It Madness
TTITLE12=Mona Lisa
TTITLE13=I'm A Shy Guy
TTITLE14=Nature Boy
TTITLE15=Errand Boy For Rhythm
TTITLE16=For Sentimental Reasons
TTITLE17=Is You Or Is You Ain't My Baby
TTITLE18=Got A Penny Benny?
TTITLE19=Route 66
TTITLE20=Calypso Blues
TTITLE21=Too Young
TTITLE22=Come To Baby Do
TTITLE23=The Trouble With Me Is You
TTITLE24=Solid Potato Salad
EXTD=
EXTT0=
EXTT1=
EXTT2=
EXTT3=
EXTT4=
EXTT5=
EXTT6=
EXTT7=
EXTT8=
EXTT9=
EXTT10=
EXTT11=
EXTT12=
EXTT13=
EXTT14=
EXTT15=
EXTT16=
EXTT17=
EXTT18=
EXTT19=
EXTT20=
EXTT21=
EXTT22=
EXTT23=
EXTT24=
PLAYORDER=
